<?xml version="1.0" standalone="no"?>
<!DOCTYPE svg PUBLIC "-//W3C//DTD SVG 20010904//EN"
 "http://www.w3.org/TR/2001/REC-SVG-20010904/DTD/svg10.dtd">
<svg version="1.0" xmlns="http://www.w3.org/2000/svg"
 width="284.000000pt" height="266.000000pt" viewBox="0 0 284.000000 266.000000"
 preserveAspectRatio="xMidYMid meet">

<g transform="translate(0.000000,266.000000) scale(0.100000,-0.100000)"
fill="#000000" stroke="none">
<path d="M1252 2345 c-442 -85 -775 -418 -852 -853 -14 -79 -14 -239 0 -325
60 -375 337 -693 710 -815 209 -68 464 -68 664 0 437 148 718 531 718 978 0
475 -316 873 -791 997 -120 31 -335 40 -449 18z m549 -447 c225 -111 265 -401
78 -561 -82 -71 -124 -80 -386 -85 -128 -2 -233 -7 -233 -11 0 -4 123 -129
272 -277 l273 -269 -554 -3 c-305 -1 -557 0 -560 3 -3 3 221 232 497 508 276
276 502 505 502 510 0 4 -26 7 -57 7 l-58 0 -167 -167 -168 -168 0 273 0 273
253 -3 c252 -3 252 -3 308 -30z"/>
</g>
</svg>
